# Exported by ZModeler 2.2.4 (Build 981) with WavefrontOBJ filter (Build 45)
# 

mtllib E92Wheel.mtl

v 0.1118 0.329502 -4.53455e-005
v 0.1118 0.300998 -0.134088
v -0.122711 0.300998 -0.134088
v -0.122711 0.329502 -4.5366e-005
v 0.1118 0.301021 0.134003
v -0.122711 0.301021 0.134003
v 0.1118 0.22048 0.244878
v -0.122711 0.22048 0.244878
v 0.1118 0.101806 0.313408
v -0.122711 0.101806 0.313408
v 0.1118 -0.0342648 0.327743
v -0.122711 -0.0342648 0.327743
v 0.1118 -0.164819 0.285408
v -0.122711 -0.164819 0.285408
v 0.1118 -0.266668 0.193719
v -0.122711 -0.266668 0.193719
v 0.1118 -0.322418 0.0685313
v -0.122711 -0.322418 0.0685313
v 0.1118 -0.32243 -0.0685092
v -0.122711 -0.32243 -0.0685092
v 0.1118 -0.266701 -0.193706
v -0.122711 -0.266701 -0.193707
v 0.1118 -0.164869 -0.285413
v -0.122711 -0.164869 -0.285413
v 0.1118 -0.0343184 -0.32777
v -0.122711 -0.0343184 -0.327771
v 0.1118 0.101752 -0.313459
v -0.122711 0.101752 -0.313459
v 0.1118 0.220438 -0.244949
v -0.122711 0.220438 -0.24495
v 0.1118 0.300998 -0.134088
v -0.122711 0.300998 -0.134088
v -0.115814 3.44035e-006 -4.14592e-005
v -0.122711 -0.164819 0.285408
v -0.122711 -0.0342648 0.327743
v -0.122711 -0.266668 0.193719
v -0.122711 -0.322418 0.0685313
v -0.122711 -0.32243 -0.0685092
v -0.122711 -0.266701 -0.193707
v -0.122711 -0.164869 -0.285413
v -0.122711 -0.0343184 -0.327771
v -0.122711 0.101752 -0.313459
v -0.122711 0.220438 -0.24495
v -0.122711 0.300998 -0.134088
v -0.122711 0.329502 -4.5366e-005
v -0.122711 0.301021 0.134003
v -0.122711 0.22048 0.244878
v -0.122711 0.101806 0.313408
v 0.114593 3.44035e-006 -4.1439e-005
v 0.1118 -0.0342648 0.327743
v 0.1118 -0.164819 0.285408
v 0.1118 0.101806 0.313408
v 0.1118 0.22048 0.244878
v 0.1118 0.301021 0.134003
v 0.1118 0.329502 -4.53455e-005
v 0.1118 0.300998 -0.134088
v 0.1118 0.220438 -0.244949
v 0.1118 0.101752 -0.313459
v 0.1118 -0.0343184 -0.32777
v 0.1118 -0.164869 -0.285413
v 0.1118 -0.266701 -0.193706
v 0.1118 -0.32243 -0.0685092
v 0.1118 -0.322418 0.0685313
v 0.1118 -0.266668 0.193719


vn 4.31672e-008 1 -8.68385e-005
vn 5.33769e-007 0.91351 -0.406816
vn 1.11283e-007 0.913511 -0.406815
vn 7.58095e-012 1 -8.6716e-005
vn -3.55511e-008 0.913581 0.406657
vn -3.55511e-008 0.913581 0.406657
vn -6.49627e-008 0.669195 0.743087
vn -7.04791e-008 0.669195 0.743087
vn -8.76817e-008 0.309171 0.951006
vn -9.14633e-008 0.309171 0.951006
vn -9.03759e-008 -0.104116 0.994565
vn -8.69411e-008 -0.104116 0.994565
vn -7.74254e-008 -0.499708 0.866194
vn -4.62012e-008 -0.499708 0.866194
vn 2.4359e-008 -0.808966 0.587855
vn -2.67352e-008 -0.808967 0.587855
vn -6.4854e-008 -0.97813 0.207996
vn -5.72214e-008 -0.97813 0.207996
vn 5.72114e-008 -0.978166 -0.207827
vn 1.05149e-007 -0.978166 -0.207827
vn 9.16911e-008 -0.809068 -0.587716
vn 5.13797e-008 -0.809067 -0.587716
vn 7.57177e-008 -0.499854 -0.866109
vn 7.40165e-008 -0.499854 -0.866109
vn 8.69508e-008 -0.104284 -0.994547
vn 8.46725e-008 -0.104284 -0.994547
vn 8.37215e-008 0.30901 -0.951059
vn 6.94572e-007 0.309009 -0.951059
vn 1.00098e-006 0.669067 -0.743202
vn 1.23309e-006 0.669066 -0.743203
vn 5.33769e-007 0.91351 -0.406816
vn 1.11283e-007 0.913511 -0.406815
vn -1 -4.11954e-006 1.36614e-006
vn -0.999781 0.0104539 -0.0181193
vn -0.999781 0.00217793 -0.0208081
vn -0.999781 0.0169217 -0.0122967
vn -0.999781 0.02046 -0.00435108
vn -0.999781 0.0204615 0.00434688
vn -0.999781 0.0169255 0.0122941
vn -0.999781 0.0104585 0.0181193
vn -0.999781 0.00218183 0.0208103
vn -0.999781 -0.00646537 0.0199005
vn -0.999781 -0.0140006 0.015552
vn -0.999781 -0.0191164 0.00851293
vn -0.999781 -0.0209261 1.38309e-006
vn -0.999781 -0.0191166 -0.00850989
vn -0.999781 -0.0140016 -0.0155486
vn -0.999781 -0.00646775 -0.0198971
vn 1 1.66664e-006 -4.05399e-007
vn 0.999964 -0.000882065 0.00842779
vn 0.999964 -0.00423397 0.00733876
vn 0.999964 0.0026195 0.00805887
vn 0.999964 0.00567082 0.00629757
vn 0.999964 0.00774256 0.00344677
vn 0.999964 0.00847541 -3.78859e-007
vn 0.999964 0.00774244 -0.00344773
vn 0.999964 0.00567046 -0.00629873
vn 0.999964 0.00261858 -0.00805992
vn 0.999964 -0.000883657 -0.00842839
vn 0.999964 -0.00423584 -0.00733847
vn 0.999964 -0.0068551 -0.00497919
vn 0.999964 -0.00828724 -0.00176039
vn 0.999964 -0.00828666 0.00176243
vn 0.999964 -0.0068536 0.00498049


vt 0.612727 0.0514646
vt 0.612292 0.0514644
vt 0.612292 0.050582
vt 0.612727 0.0505819
vt 0.613161 0.0514647
vt 0.613161 0.0505819
vt 0.613595 0.0514649
vt 0.613595 0.0505818
vt 0.61403 0.0514652
vt 0.61403 0.0505818
vt 0.614465 0.0514653
vt 0.614465 0.0505817
vt 0.614899 0.0514655
vt 0.614899 0.0505817
vt 0.615334 0.0514657
vt 0.615334 0.0505816
vt 0.615769 0.0514659
vt 0.615769 0.0505816
vt 0.616204 0.0514661
vt 0.616204 0.0505815
vt 0.61664 0.0514663
vt 0.61664 0.0505815
vt 0.617075 0.0514665
vt 0.617075 0.0505813
vt 0.617511 0.0514667
vt 0.617511 0.0505813
vt 0.617946 0.0514669
vt 0.617946 0.0505813
vt 0.618382 0.0514671
vt 0.618382 0.0505812
vt 0.618818 0.0514673
vt 0.618818 0.0505811
vt 0.49996 0.500097
vt 0.9285 0.251291
vt 0.992057 0.448366
vt 0.79085 0.0975478
vt 0.602908 0.0133916
vt 0.397173 0.0133737
vt 0.209217 0.0974972
vt 0.0715403 0.251217
vt 0.00794994 0.448285
vt 0.0294352 0.653686
vt 0.132287 0.832846
vt 0.29872 0.954453
vt 0.499956 0.997481
vt 0.701199 0.954488
vt 0.867653 0.83291
vt 0.970536 0.653768
vt 0.49996 0.500097
vt 0.992057 0.448366
vt 0.9285 0.251291
vt 0.970536 0.653768
vt 0.867653 0.83291
vt 0.701199 0.954488
vt 0.499956 0.997481
vt 0.29872 0.954453
vt 0.132287 0.832846
vt 0.0294352 0.653686
vt 0.00794994 0.448285
vt 0.0715403 0.251217
vt 0.209217 0.0974972
vt 0.397173 0.0133737
vt 0.602908 0.0133916
vt 0.79085 0.0975478


usemtl bmw_m3_e92_wheel_wheels__Wheels_Opaque_

f 1/1/1 2/2/2 3/3/3
f 3/3/3 4/4/4 1/1/1
f 5/5/5 1/1/1 4/4/4
f 4/4/4 6/6/6 5/5/5
f 7/7/7 5/5/5 6/6/6
f 6/6/6 8/8/8 7/7/7
f 9/9/9 7/7/7 8/8/8
f 8/8/8 10/10/10 9/9/9
f 11/11/11 9/9/9 10/10/10
f 10/10/10 12/12/12 11/11/11
f 13/13/13 11/11/11 12/12/12
f 12/12/12 14/14/14 13/13/13
f 15/15/15 13/13/13 14/14/14
f 14/14/14 16/16/16 15/15/15
f 17/17/17 15/15/15 16/16/16
f 16/16/16 18/18/18 17/17/17
f 19/19/19 17/17/17 18/18/18
f 18/18/18 20/20/20 19/19/19
f 21/21/21 19/19/19 20/20/20
f 20/20/20 22/22/22 21/21/21
f 23/23/23 21/21/21 22/22/22
f 22/22/22 24/24/24 23/23/23
f 25/25/25 23/23/23 24/24/24
f 24/24/24 26/26/26 25/25/25
f 27/27/27 25/25/25 26/26/26
f 26/26/26 28/28/28 27/27/27
f 29/29/29 27/27/27 28/28/28
f 28/28/28 30/30/30 29/29/29
f 31/31/31 29/29/29 30/30/30
f 30/30/30 32/32/32 31/31/31
f 33/33/33 34/34/34 35/35/35
f 33/33/33 36/36/36 34/34/34
f 33/33/33 37/37/37 36/36/36
f 33/33/33 38/38/38 37/37/37
f 33/33/33 39/39/39 38/38/38
f 33/33/33 40/40/40 39/39/39
f 33/33/33 41/41/41 40/40/40
f 33/33/33 42/42/42 41/41/41
f 33/33/33 43/43/43 42/42/42
f 33/33/33 44/44/44 43/43/43
f 33/33/33 45/45/45 44/44/44
f 33/33/33 46/46/46 45/45/45
f 33/33/33 47/47/47 46/46/46
f 33/33/33 48/48/48 47/47/47
f 33/33/33 35/35/35 48/48/48
f 49/49/49 50/50/50 51/51/51
f 49/49/49 52/52/52 50/50/50
f 49/49/49 53/53/53 52/52/52
f 49/49/49 54/54/54 53/53/53
f 49/49/49 55/55/55 54/54/54
f 49/49/49 56/56/56 55/55/55
f 49/49/49 57/57/57 56/56/56
f 49/49/49 58/58/58 57/57/57
f 49/49/49 59/59/59 58/58/58
f 49/49/49 60/60/60 59/59/59
f 49/49/49 61/61/61 60/60/60
f 49/49/49 62/62/62 61/61/61
f 49/49/49 63/63/63 62/62/62
f 49/49/49 64/64/64 63/63/63
f 49/49/49 51/51/51 64/64/64
